<mxfile host="app.diagrams.net" modified="2022-11-09T14:38:27.681Z" agent="5.0 (Windows NT 10.0; Win64; x64) AppleWebKit/537.36 (KHTML, like Gecko) Chrome/107.0.0.0 Safari/537.36" etag="UGYcIcDElZN4ZYmWt3qd" version="20.5.2" type="github">
  <diagram id="C5RBs43oDa-KdzZeNtuy" name="Page-1">
    <mxGraphModel dx="1117" dy="1913" grid="1" gridSize="10" guides="1" tooltips="1" connect="1" arrows="1" fold="1" page="1" pageScale="1" pageWidth="827" pageHeight="1169" math="0" shadow="0">
      <root>
        <mxCell id="WIyWlLk6GJQsqaUBKTNV-0" />
        <mxCell id="WIyWlLk6GJQsqaUBKTNV-1" parent="WIyWlLk6GJQsqaUBKTNV-0" />
        <mxCell id="ROJIdtXl1mzGo9sjUnz3-2" value="" style="html=1;dashed=0;whitespace=wrap;" vertex="1" parent="WIyWlLk6GJQsqaUBKTNV-1">
          <mxGeometry x="310" y="90" width="100" height="50" as="geometry" />
        </mxCell>
        <mxCell id="ROJIdtXl1mzGo9sjUnz3-5" value="" style="edgeStyle=orthogonalEdgeStyle;rounded=0;orthogonalLoop=1;jettySize=auto;html=1;" edge="1" parent="WIyWlLk6GJQsqaUBKTNV-1" source="ROJIdtXl1mzGo9sjUnz3-3" target="ROJIdtXl1mzGo9sjUnz3-4">
          <mxGeometry relative="1" as="geometry" />
        </mxCell>
        <mxCell id="ROJIdtXl1mzGo9sjUnz3-3" value="&lt;span style=&quot;&quot;&gt;Set up MSSQL Server DB/ Data staging area&lt;/span&gt;" style="text;html=1;strokeColor=none;fillColor=none;align=center;verticalAlign=middle;whiteSpace=wrap;rounded=0;" vertex="1" parent="WIyWlLk6GJQsqaUBKTNV-1">
          <mxGeometry x="315" y="90" width="90" height="50" as="geometry" />
        </mxCell>
        <mxCell id="ROJIdtXl1mzGo9sjUnz3-4" value="" style="whiteSpace=wrap;html=1;" vertex="1" parent="WIyWlLk6GJQsqaUBKTNV-1">
          <mxGeometry x="300" y="200" width="120" height="60" as="geometry" />
        </mxCell>
        <mxCell id="ROJIdtXl1mzGo9sjUnz3-7" value="" style="endArrow=classic;html=1;rounded=0;entryX=0.5;entryY=0;entryDx=0;entryDy=0;exitX=0.5;exitY=0.5;exitDx=0;exitDy=15;exitPerimeter=0;" edge="1" parent="WIyWlLk6GJQsqaUBKTNV-1" target="ROJIdtXl1mzGo9sjUnz3-3">
          <mxGeometry width="50" height="50" relative="1" as="geometry">
            <mxPoint x="360" y="50" as="sourcePoint" />
            <mxPoint x="410" y="10" as="targetPoint" />
          </mxGeometry>
        </mxCell>
        <mxCell id="ROJIdtXl1mzGo9sjUnz3-10" value="" style="edgeStyle=orthogonalEdgeStyle;rounded=0;orthogonalLoop=1;jettySize=auto;html=1;" edge="1" parent="WIyWlLk6GJQsqaUBKTNV-1" source="ROJIdtXl1mzGo9sjUnz3-8" target="ROJIdtXl1mzGo9sjUnz3-9">
          <mxGeometry relative="1" as="geometry" />
        </mxCell>
        <mxCell id="ROJIdtXl1mzGo9sjUnz3-8" value="&lt;span style=&quot;&quot;&gt;Set up REST API Service&lt;/span&gt;" style="text;html=1;strokeColor=none;fillColor=none;align=center;verticalAlign=middle;whiteSpace=wrap;rounded=0;" vertex="1" parent="WIyWlLk6GJQsqaUBKTNV-1">
          <mxGeometry x="315" y="205" width="90" height="50" as="geometry" />
        </mxCell>
        <mxCell id="ROJIdtXl1mzGo9sjUnz3-9" value="" style="whiteSpace=wrap;html=1;" vertex="1" parent="WIyWlLk6GJQsqaUBKTNV-1">
          <mxGeometry x="300" y="345" width="120" height="60" as="geometry" />
        </mxCell>
        <mxCell id="ROJIdtXl1mzGo9sjUnz3-13" value="" style="edgeStyle=orthogonalEdgeStyle;rounded=0;orthogonalLoop=1;jettySize=auto;html=1;" edge="1" parent="WIyWlLk6GJQsqaUBKTNV-1" source="ROJIdtXl1mzGo9sjUnz3-11" target="ROJIdtXl1mzGo9sjUnz3-12">
          <mxGeometry relative="1" as="geometry" />
        </mxCell>
        <mxCell id="ROJIdtXl1mzGo9sjUnz3-11" value="&lt;span style=&quot;&quot;&gt;Invoke REST API service to consume API data&lt;/span&gt;" style="text;html=1;strokeColor=none;fillColor=none;align=center;verticalAlign=middle;whiteSpace=wrap;rounded=0;" vertex="1" parent="WIyWlLk6GJQsqaUBKTNV-1">
          <mxGeometry x="307.5" y="350" width="105" height="50" as="geometry" />
        </mxCell>
        <mxCell id="ROJIdtXl1mzGo9sjUnz3-15" value="" style="edgeStyle=orthogonalEdgeStyle;rounded=0;orthogonalLoop=1;jettySize=auto;html=1;" edge="1" parent="WIyWlLk6GJQsqaUBKTNV-1" source="ROJIdtXl1mzGo9sjUnz3-12" target="ROJIdtXl1mzGo9sjUnz3-14">
          <mxGeometry relative="1" as="geometry" />
        </mxCell>
        <mxCell id="ROJIdtXl1mzGo9sjUnz3-12" value="Data shaping/filtering" style="whiteSpace=wrap;html=1;" vertex="1" parent="WIyWlLk6GJQsqaUBKTNV-1">
          <mxGeometry x="300" y="475" width="120" height="60" as="geometry" />
        </mxCell>
        <mxCell id="ROJIdtXl1mzGo9sjUnz3-14" value="" style="whiteSpace=wrap;html=1;" vertex="1" parent="WIyWlLk6GJQsqaUBKTNV-1">
          <mxGeometry x="300" y="615" width="120" height="60" as="geometry" />
        </mxCell>
        <mxCell id="ROJIdtXl1mzGo9sjUnz3-18" value="" style="edgeStyle=orthogonalEdgeStyle;rounded=0;orthogonalLoop=1;jettySize=auto;html=1;" edge="1" parent="WIyWlLk6GJQsqaUBKTNV-1" source="ROJIdtXl1mzGo9sjUnz3-16" target="ROJIdtXl1mzGo9sjUnz3-17">
          <mxGeometry relative="1" as="geometry" />
        </mxCell>
        <mxCell id="ROJIdtXl1mzGo9sjUnz3-16" value="&lt;span style=&quot;&quot;&gt;Invoke SQL Server client and load data into staging area&lt;/span&gt;" style="text;html=1;strokeColor=none;fillColor=none;align=center;verticalAlign=middle;whiteSpace=wrap;rounded=0;" vertex="1" parent="WIyWlLk6GJQsqaUBKTNV-1">
          <mxGeometry x="305" y="620" width="105" height="50" as="geometry" />
        </mxCell>
        <mxCell id="ROJIdtXl1mzGo9sjUnz3-17" value="END" style="ellipse;whiteSpace=wrap;html=1;" vertex="1" parent="WIyWlLk6GJQsqaUBKTNV-1">
          <mxGeometry x="297.5" y="745" width="120" height="60" as="geometry" />
        </mxCell>
        <mxCell id="ROJIdtXl1mzGo9sjUnz3-20" value="" style="edgeStyle=orthogonalEdgeStyle;rounded=0;orthogonalLoop=1;jettySize=auto;html=1;" edge="1" parent="WIyWlLk6GJQsqaUBKTNV-1" source="ROJIdtXl1mzGo9sjUnz3-19" target="ROJIdtXl1mzGo9sjUnz3-3">
          <mxGeometry relative="1" as="geometry" />
        </mxCell>
        <mxCell id="ROJIdtXl1mzGo9sjUnz3-19" value="START" style="ellipse;whiteSpace=wrap;html=1;" vertex="1" parent="WIyWlLk6GJQsqaUBKTNV-1">
          <mxGeometry x="300" y="-20" width="120" height="60" as="geometry" />
        </mxCell>
        <mxCell id="ROJIdtXl1mzGo9sjUnz3-21" value="" style="endArrow=none;dashed=1;html=1;dashPattern=1 3;strokeWidth=2;rounded=0;edgeStyle=orthogonalEdgeStyle;" edge="1" parent="WIyWlLk6GJQsqaUBKTNV-1">
          <mxGeometry width="50" height="50" relative="1" as="geometry">
            <mxPoint x="467.5" y="705" as="sourcePoint" />
            <mxPoint x="247.5" y="305" as="targetPoint" />
          </mxGeometry>
        </mxCell>
        <mxCell id="ROJIdtXl1mzGo9sjUnz3-22" value="" style="endArrow=none;dashed=1;html=1;dashPattern=1 3;strokeWidth=2;rounded=0;edgeStyle=orthogonalEdgeStyle;" edge="1" parent="WIyWlLk6GJQsqaUBKTNV-1">
          <mxGeometry width="50" height="50" relative="1" as="geometry">
            <mxPoint x="247.5" y="305" as="sourcePoint" />
            <mxPoint x="467.5" y="705" as="targetPoint" />
          </mxGeometry>
        </mxCell>
        <mxCell id="ROJIdtXl1mzGo9sjUnz3-23" value="" style="edgeStyle=elbowEdgeStyle;elbow=horizontal;endArrow=classic;html=1;rounded=0;" edge="1" parent="WIyWlLk6GJQsqaUBKTNV-1">
          <mxGeometry width="50" height="50" relative="1" as="geometry">
            <mxPoint x="358" y="720" as="sourcePoint" />
            <mxPoint x="360" y="290" as="targetPoint" />
            <Array as="points">
              <mxPoint x="168" y="580" />
            </Array>
          </mxGeometry>
        </mxCell>
        <mxCell id="ROJIdtXl1mzGo9sjUnz3-24" value="Task scheduled daily" style="strokeWidth=2;html=1;shape=mxgraph.flowchart.delay;whiteSpace=wrap;" vertex="1" parent="WIyWlLk6GJQsqaUBKTNV-1">
          <mxGeometry x="120" y="460" width="100" height="60" as="geometry" />
        </mxCell>
        <mxCell id="ROJIdtXl1mzGo9sjUnz3-25" value="&lt;b&gt;PowerShell Environment&lt;/b&gt;" style="text;html=1;strokeColor=none;fillColor=none;align=center;verticalAlign=middle;whiteSpace=wrap;rounded=0;" vertex="1" parent="WIyWlLk6GJQsqaUBKTNV-1">
          <mxGeometry x="247.5" y="305" width="112.5" height="30" as="geometry" />
        </mxCell>
        <mxCell id="ROJIdtXl1mzGo9sjUnz3-28" value="&lt;h1&gt;&lt;font style=&quot;font-size: 15px;&quot;&gt;Requirements&lt;/font&gt;&lt;/h1&gt;&lt;p&gt;1. Obtain OAuth access token from API provider&lt;/p&gt;&lt;p&gt;2. Test API authentication status&lt;/p&gt;" style="text;html=1;strokeColor=none;fillColor=none;spacing=5;spacingTop=-20;whiteSpace=wrap;overflow=hidden;rounded=0;" vertex="1" parent="WIyWlLk6GJQsqaUBKTNV-1">
          <mxGeometry x="460" y="170" width="190" height="120" as="geometry" />
        </mxCell>
        <mxCell id="ROJIdtXl1mzGo9sjUnz3-29" value="" style="endArrow=none;dashed=1;html=1;dashPattern=1 3;strokeWidth=2;rounded=0;entryX=0;entryY=0.5;entryDx=0;entryDy=0;" edge="1" parent="WIyWlLk6GJQsqaUBKTNV-1" target="ROJIdtXl1mzGo9sjUnz3-28">
          <mxGeometry width="50" height="50" relative="1" as="geometry">
            <mxPoint x="420" y="230" as="sourcePoint" />
            <mxPoint x="470" y="180" as="targetPoint" />
          </mxGeometry>
        </mxCell>
      </root>
    </mxGraphModel>
  </diagram>
</mxfile>
